<svg width="158" height="53" viewBox="0 0 158 53" fill="none" xmlns="http://www.w3.org/2000/svg">
<path d="M5.24512 37.0557V39.4902H8.76953V40.3516H5.24512V46.3369C5.25098 46.7061 5.30664 47.0137 5.41211 47.2598C5.52344 47.5 5.66992 47.6963 5.85156 47.8486C6.03906 47.9951 6.25586 48.1006 6.50195 48.165C6.75391 48.2295 7.02637 48.2617 7.31934 48.2617C7.6123 48.2617 7.91113 48.2412 8.21582 48.2002C8.52637 48.1592 8.79004 48.1182 9.00684 48.0771L9.16504 48.877C8.91309 48.9766 8.60547 49.0498 8.24219 49.0967C7.87891 49.1494 7.50977 49.1758 7.13477 49.1758C6.71289 49.1758 6.32324 49.123 5.96582 49.0176C5.6084 48.918 5.29785 48.7568 5.03418 48.5342C4.77051 48.3057 4.5625 48.0127 4.41016 47.6553C4.25781 47.292 4.17871 46.8496 4.17285 46.3281V40.3516H1.52734V39.4902H4.17285V37.0557H5.24512ZM19.9879 49C19.9234 48.8066 19.8736 48.5928 19.8385 48.3584C19.8033 48.1182 19.7799 47.875 19.7682 47.6289C19.5865 47.8516 19.3756 48.0566 19.1354 48.2441C18.8951 48.4316 18.6314 48.5957 18.3443 48.7363C18.0631 48.8711 17.7584 48.9766 17.4303 49.0527C17.1021 49.1348 16.7594 49.1758 16.402 49.1758C15.9566 49.1758 15.5406 49.1113 15.1539 48.9824C14.773 48.8535 14.4391 48.6719 14.152 48.4375C13.8707 48.2031 13.648 47.9219 13.484 47.5938C13.3258 47.2598 13.2467 46.8877 13.2467 46.4775C13.2467 45.9326 13.3668 45.4697 13.607 45.0889C13.8473 44.708 14.1725 44.4004 14.5826 44.166C14.9928 43.9258 15.4674 43.75 16.0064 43.6387C16.5455 43.5273 17.1109 43.4717 17.7027 43.4717H19.7594V42.3906C19.7535 42.0332 19.6832 41.7197 19.5484 41.4502C19.4137 41.1748 19.2291 40.9463 18.9947 40.7646C18.7662 40.5771 18.4908 40.4365 18.1686 40.3428C17.8521 40.249 17.5064 40.2021 17.1314 40.2021C16.7916 40.2021 16.4664 40.2461 16.1559 40.334C15.8512 40.4219 15.5787 40.5479 15.3385 40.7119C15.1041 40.876 14.9137 41.0781 14.7672 41.3184C14.6207 41.5527 14.5416 41.8193 14.5299 42.1182L13.4752 42.1094C13.4928 41.7051 13.5982 41.333 13.7916 40.9932C13.9908 40.6533 14.2574 40.3604 14.5914 40.1143C14.9254 39.8623 15.3121 39.666 15.7516 39.5254C16.1969 39.3848 16.6715 39.3145 17.1754 39.3145C17.6793 39.3145 18.151 39.3789 18.5904 39.5078C19.0357 39.6367 19.4195 39.8301 19.7418 40.0879C20.0699 40.3457 20.3277 40.668 20.5152 41.0547C20.7086 41.4414 20.8082 41.8926 20.8141 42.4082V47.0137C20.8141 47.3301 20.8404 47.6494 20.8932 47.9717C20.9518 48.2939 21.0221 48.6016 21.1041 48.8945L21.1129 49H19.9879ZM16.5162 48.2441C16.8854 48.25 17.2369 48.2061 17.5709 48.1123C17.9107 48.0186 18.2213 47.8896 18.5025 47.7256C18.7838 47.5557 19.0328 47.3564 19.2496 47.1279C19.4664 46.8936 19.6363 46.6387 19.7594 46.3633V44.2803H17.8434C17.3805 44.2803 16.9352 44.3154 16.5074 44.3857C16.0797 44.4561 15.7018 44.5732 15.3736 44.7373C15.0455 44.8955 14.7818 45.1094 14.5826 45.3789C14.3893 45.6484 14.2926 45.9854 14.2926 46.3896C14.2926 46.6768 14.3512 46.9346 14.4684 47.1631C14.5855 47.3916 14.7437 47.5879 14.943 47.752C15.1422 47.9102 15.3766 48.0332 15.6461 48.1211C15.9156 48.2031 16.2057 48.2441 16.5162 48.2441ZM31.7951 46.583C31.7951 46.29 31.7219 46.0352 31.5754 45.8184C31.4289 45.6016 31.2268 45.417 30.9689 45.2646C30.717 45.1064 30.424 44.9746 30.09 44.8691C29.7561 44.7637 29.4016 44.6729 29.0266 44.5967C28.5695 44.5029 28.1271 44.3916 27.6994 44.2627C27.2717 44.1279 26.8908 43.958 26.5568 43.7529C26.2229 43.5479 25.9562 43.2988 25.757 43.0059C25.5578 42.707 25.4582 42.3408 25.4582 41.9072C25.4582 41.4971 25.5607 41.1309 25.7658 40.8086C25.9709 40.4863 26.2404 40.2139 26.5744 39.9912C26.9084 39.7686 27.2893 39.6016 27.717 39.4902C28.1447 39.373 28.5842 39.3145 29.0354 39.3145C29.551 39.3145 30.0314 39.3789 30.4768 39.5078C30.9279 39.6309 31.3205 39.8154 31.6545 40.0615C31.9943 40.3018 32.2639 40.5977 32.4631 40.9492C32.6623 41.3008 32.7707 41.7021 32.7883 42.1533H31.7336C31.7219 41.8486 31.6398 41.5762 31.4875 41.3359C31.3352 41.0898 31.133 40.8848 30.8811 40.7207C30.6291 40.5566 30.342 40.4307 30.0197 40.3428C29.7033 40.2549 29.3752 40.2109 29.0354 40.2109C28.7189 40.2109 28.4084 40.2461 28.1037 40.3164C27.8049 40.3809 27.5354 40.4834 27.2951 40.624C27.0607 40.7588 26.8703 40.9316 26.7238 41.1426C26.5832 41.3477 26.5129 41.5908 26.5129 41.8721C26.507 42.1709 26.5744 42.4229 26.715 42.6279C26.8615 42.8271 27.0578 42.9971 27.3039 43.1377C27.55 43.2725 27.8371 43.3867 28.1652 43.4805C28.4992 43.5684 28.8537 43.6504 29.2287 43.7266C29.7092 43.8262 30.1662 43.9492 30.5998 44.0957C31.0393 44.2363 31.426 44.415 31.76 44.6318C32.0939 44.8428 32.3576 45.1035 32.551 45.4141C32.7443 45.7246 32.841 46.0967 32.841 46.5303C32.841 46.9756 32.7326 47.3652 32.5158 47.6992C32.3049 48.0273 32.0236 48.3027 31.6721 48.5254C31.3264 48.7422 30.9279 48.9033 30.4768 49.0088C30.0314 49.1201 29.5715 49.1758 29.0969 49.1758C28.5637 49.1758 28.0598 49.1113 27.5852 48.9824C27.1164 48.8535 26.7004 48.6689 26.3371 48.4287C25.9797 48.1826 25.6926 47.8838 25.4758 47.5322C25.259 47.1807 25.1418 46.7822 25.1242 46.3369H26.1789C26.2141 46.7119 26.3254 47.0254 26.5129 47.2773C26.7062 47.5293 26.9406 47.7314 27.216 47.8838C27.4973 48.0303 27.802 48.1357 28.1301 48.2002C28.4582 48.2588 28.7805 48.2881 29.0969 48.2881C29.4191 48.2881 29.7385 48.2559 30.0549 48.1914C30.3771 48.1211 30.6643 48.0186 30.9162 47.8838C31.174 47.7432 31.382 47.5674 31.5402 47.3564C31.7043 47.1396 31.7893 46.8818 31.7951 46.583ZM39.4803 44.1924L38.1355 45.3965V49H37.0721V35.5H38.1355V44.1836L39.2693 43.0674L43.1277 39.4902H44.4725L40.2273 43.498L44.9119 49H43.5584L39.4803 44.1924ZM63.9385 47.5762L63.9824 47.7607L64.0352 47.5762L67.3047 39.4902H68.4033L64.4043 49H63.543L59.5352 39.4902H60.6338L63.9385 47.5762ZM72.2477 39.4902H76.6598V48.0684H79.8941V49H72.2477V48.0684H75.6051V40.4307H72.2477V39.4902ZM75.2975 36.8887C75.2975 36.6719 75.359 36.4844 75.482 36.3262C75.6051 36.168 75.8102 36.0889 76.0973 36.0889C76.3785 36.0889 76.5807 36.168 76.7037 36.3262C76.8326 36.4844 76.8971 36.6719 76.8971 36.8887C76.8971 37.0938 76.8326 37.2754 76.7037 37.4336C76.5807 37.5859 76.3785 37.6621 76.0973 37.6621C75.8102 37.6621 75.6051 37.5859 75.482 37.4336C75.359 37.2754 75.2975 37.0938 75.2975 36.8887ZM87.7727 49.1758C87.1105 49.1758 86.507 49.0527 85.9621 48.8066C85.4172 48.5605 84.9484 48.2266 84.5559 47.8047C84.1691 47.3828 83.8674 46.8906 83.6506 46.3281C83.4397 45.7598 83.3313 45.1562 83.3254 44.5176V44.1396C83.3313 43.46 83.4426 42.8271 83.6594 42.2412C83.882 41.6553 84.1838 41.1455 84.5647 40.7119C84.9455 40.2783 85.3938 39.9385 85.9094 39.6924C86.425 39.4404 86.9787 39.3145 87.5705 39.3145C88.2033 39.3145 88.7629 39.4287 89.2492 39.6572C89.7355 39.8857 90.1428 40.1992 90.4709 40.5977C90.8049 40.9902 91.0568 41.4502 91.2268 41.9775C91.4025 42.5049 91.4934 43.0703 91.4992 43.6738V44.3154H84.3801V44.5176C84.3859 45.0156 84.4709 45.4932 84.635 45.9502C84.799 46.4014 85.0305 46.7998 85.3293 47.1455C85.6281 47.4912 85.9885 47.7695 86.4104 47.9805C86.8322 48.1855 87.301 48.2881 87.8166 48.2881C88.4025 48.2939 88.9328 48.1855 89.4074 47.9629C89.882 47.7402 90.2863 47.418 90.6203 46.9961L91.2883 47.4971C91.1125 47.7432 90.9045 47.9717 90.6643 48.1826C90.424 48.3877 90.1545 48.5635 89.8557 48.71C89.5627 48.8564 89.2404 48.9707 88.8889 49.0527C88.5373 49.1348 88.1652 49.1758 87.7727 49.1758ZM87.5705 40.2109C87.1428 40.2109 86.7502 40.293 86.3928 40.457C86.0354 40.6152 85.7219 40.8379 85.4523 41.125C85.1828 41.4121 84.9602 41.752 84.7844 42.1445C84.6086 42.5312 84.4885 42.9561 84.424 43.4189H90.4445V43.3047C90.4328 42.9121 90.3596 42.5312 90.2248 42.1621C90.0959 41.7871 89.9084 41.4561 89.6623 41.1689C89.4221 40.8818 89.1262 40.6504 88.7746 40.4746C88.423 40.2988 88.0217 40.2109 87.5705 40.2109ZM96.574 45.915L96.8553 47.6025L97.2068 45.915L98.8152 39.4902H99.5535L101.162 45.915L101.513 47.6465L101.821 45.915L103.122 39.4902H104.097L101.988 49H101.136L99.4568 42.4961L99.1756 40.9756L98.8943 42.4961L97.2332 49H96.3807L94.2713 39.4902H95.2469L96.574 45.915ZM111.194 49.1758C110.532 49.1758 109.928 49.0527 109.383 48.8066C108.838 48.5605 108.37 48.2266 107.977 47.8047C107.59 47.3828 107.288 46.8906 107.072 46.3281C106.861 45.7598 106.752 45.1562 106.746 44.5176V44.1396C106.752 43.46 106.864 42.8271 107.08 42.2412C107.303 41.6553 107.605 41.1455 107.986 40.7119C108.367 40.2783 108.815 39.9385 109.33 39.6924C109.846 39.4404 110.4 39.3145 110.992 39.3145C111.624 39.3145 112.184 39.4287 112.67 39.6572C113.157 39.8857 113.564 40.1992 113.892 40.5977C114.226 40.9902 114.478 41.4502 114.648 41.9775C114.824 42.5049 114.914 43.0703 114.92 43.6738V44.3154H107.801V44.5176C107.807 45.0156 107.892 45.4932 108.056 45.9502C108.22 46.4014 108.452 46.7998 108.75 47.1455C109.049 47.4912 109.41 47.7695 109.831 47.9805C110.253 48.1855 110.722 48.2881 111.238 48.2881C111.824 48.2939 112.354 48.1855 112.829 47.9629C113.303 47.7402 113.707 47.418 114.041 46.9961L114.709 47.4971C114.534 47.7432 114.326 47.9717 114.085 48.1826C113.845 48.3877 113.576 48.5635 113.277 48.71C112.984 48.8564 112.662 48.9707 112.31 49.0527C111.958 49.1348 111.586 49.1758 111.194 49.1758ZM110.992 40.2109C110.564 40.2109 110.171 40.293 109.814 40.457C109.456 40.6152 109.143 40.8379 108.873 41.125C108.604 41.4121 108.381 41.752 108.205 42.1445C108.03 42.5312 107.91 42.9561 107.845 43.4189H113.866V43.3047C113.854 42.9121 113.781 42.5312 113.646 42.1621C113.517 41.7871 113.329 41.4561 113.083 41.1689C112.843 40.8818 112.547 40.6504 112.196 40.4746C111.844 40.2988 111.443 40.2109 110.992 40.2109ZM125.137 39.3145C125.4 39.3145 125.664 39.332 125.928 39.3672C126.191 39.3965 126.411 39.4404 126.587 39.499L126.455 40.5098C126.209 40.457 125.963 40.416 125.717 40.3867C125.471 40.3574 125.219 40.3428 124.961 40.3428C124.07 40.3428 123.314 40.5537 122.693 40.9756C122.072 41.3975 121.636 42.0449 121.384 42.918L121.393 49H120.303V39.4902H121.313L121.384 41.1426V41.3359C121.771 40.709 122.283 40.2168 122.922 39.8594C123.561 39.4961 124.299 39.3145 125.137 39.3145Z" fill="#E2ECEB"/>
<path fill-rule="evenodd" clip-rule="evenodd" d="M26.0813 20.585C27.2413 21.368 28.0713 21.937 28.5813 22.291C28.9415 22.4915 29.2513 22.7716 29.4869 23.1098C29.7226 23.4481 29.8779 23.8356 29.9413 24.243C29.8064 25.1958 29.4159 26.0943 28.8113 26.843C28.5895 27.2889 28.2623 27.6738 27.858 27.9645C27.4537 28.2552 26.9846 28.4428 26.4913 28.511C25.6834 28.3701 24.9274 28.0166 24.3013 27.487C24.1713 27.411 23.8113 27.171 23.2313 26.767C22.6513 26.363 22.2013 26.06 21.8713 25.857C19.6194 27.6426 16.8251 28.6054 13.9513 28.586C12.0982 28.6223 10.2581 28.2701 8.54954 27.5518C6.84096 26.8336 5.30189 25.7654 4.03136 24.416C2.73043 23.1135 1.70349 21.5636 1.01134 19.8578C0.319179 18.1519 -0.024204 16.3247 0.0013259 14.484C-0.0120139 12.4639 0.371939 10.4609 1.13133 8.589C1.81986 6.86237 2.85433 5.29489 4.17125 3.983C5.42889 2.74547 6.908 1.75528 8.53135 1.064C10.1303 0.364921 11.8562 0.00337899 13.6013 0.0019989C15.416 -0.014099 17.2153 0.337012 18.8909 1.03421C20.5664 1.73142 22.0836 2.7603 23.3513 4.059C24.7117 5.3934 25.781 6.99509 26.4918 8.76314C27.2026 10.5312 27.5395 12.4273 27.4813 14.332C27.4654 16.4923 26.9881 18.6242 26.0813 20.585ZM6.71129 14.292C6.67036 15.3069 6.84329 16.319 7.21886 17.2628C7.59442 18.2065 8.16428 19.0607 8.89134 19.77C9.51554 20.4298 10.2668 20.9563 11.1 21.3179C11.9331 21.6795 12.8309 21.8687 13.7391 21.874C14.6473 21.8793 15.5473 21.7007 16.3846 21.3489C17.222 20.9971 17.9794 20.4794 18.6113 19.827C19.3391 19.1146 19.9078 18.2562 20.2801 17.3083C20.6524 16.3603 20.8199 15.3443 20.7713 14.327C20.8158 13.3032 20.6447 12.2814 20.2691 11.328C19.8936 10.3745 19.322 9.51049 18.5913 8.792C17.9573 8.14024 17.2006 7.62044 16.3647 7.26259C15.5289 6.90474 14.6305 6.71591 13.7213 6.707C12.8134 6.71432 11.9163 6.90398 11.0831 7.26472C10.25 7.62547 9.49785 8.14994 8.87132 8.807C8.14999 9.52104 7.58538 10.3776 7.21348 11.3219C6.84158 12.2663 6.67052 13.2778 6.71129 14.292ZM43.9313 0.000999451C45.7701 0.0159035 47.588 0.393082 49.281 1.11097C50.974 1.82886 52.5089 2.87338 53.798 4.18482C55.087 5.49626 56.1049 7.04891 56.7936 8.75399C57.4822 10.4591 57.828 12.2832 57.8113 14.122C57.89 17.92 56.4711 21.5965 53.8613 24.357C52.6416 25.7153 51.1443 26.7957 49.4708 27.525C47.7973 28.2542 45.9866 28.6154 44.1614 28.584C42.3272 28.612 40.5075 28.2554 38.8196 27.5372C37.1316 26.819 35.6129 25.755 34.3613 24.414C33.059 23.112 32.0305 21.5624 31.3367 19.8566C30.6428 18.1508 30.2976 16.3234 30.3213 14.482C30.3064 12.4608 30.6939 10.4569 31.4613 8.587C32.15 6.86288 33.1808 5.29608 34.4913 3.981C35.7525 2.74779 37.2306 1.75819 38.8513 1.062C40.4538 0.36321 42.183 0.00203623 43.9313 0.000999451ZM37.0314 14.292C36.9927 15.3066 37.1667 16.3181 37.5421 17.2615C37.9175 18.2049 38.4861 19.0593 39.2113 19.77C39.8365 20.4298 40.5887 20.9563 41.4227 21.3178C42.2567 21.6794 43.1552 21.8685 44.0642 21.8739C44.9732 21.8792 45.8737 21.7006 46.7119 21.3488C47.55 20.9971 48.3084 20.4794 48.9413 19.827C49.6691 19.1146 50.2379 18.2562 50.6102 17.3083C50.9825 16.3603 51.1498 15.3443 51.1013 14.327C51.1458 13.3032 50.9748 12.2814 50.5992 11.328C50.2237 10.3745 49.652 9.51049 48.9212 8.792C48.2869 8.14077 47.5301 7.62132 46.6943 7.26351C45.8586 6.90569 44.9603 6.71657 44.0513 6.707C43.1419 6.71429 42.2433 6.90389 41.4086 7.2646C40.5738 7.6253 39.8198 8.14978 39.1913 8.807C38.4699 9.52104 37.9053 10.3776 37.5334 11.3219C37.1615 12.2663 36.9906 13.2778 37.0314 14.292ZM73.3113 0.000999451C75.1499 0.0149773 76.9678 0.3916 78.6606 1.10929C80.3535 1.82697 81.8881 2.87162 83.1765 4.18338C84.4649 5.49514 85.482 7.04823 86.1692 8.75368C86.8564 10.4591 87.2003 12.2834 87.1813 14.122C87.2635 17.9188 85.8482 21.5954 83.2413 24.357C82.0217 25.7153 80.5244 26.7957 78.8508 27.525C77.1773 28.2542 75.3666 28.6154 73.5414 28.584C71.7072 28.612 69.8875 28.2554 68.1996 27.5372C66.5117 26.819 64.9929 25.755 63.7413 24.414C62.439 23.112 61.4105 21.5624 60.7167 19.8566C60.0228 18.1508 59.6776 16.3234 59.7013 14.482C59.6864 12.4608 60.0739 10.4569 60.8413 8.587C61.53 6.86288 62.5608 5.29608 63.8713 3.981C65.1307 2.74561 66.6093 1.75572 68.2313 1.062C69.8338 0.36321 71.563 0.00203623 73.3113 0.000999451ZM66.4114 14.292C66.3727 15.3066 66.5467 16.3181 66.9221 17.2615C67.2975 18.2049 67.8661 19.0593 68.5913 19.77C69.2155 20.4298 69.9669 20.9563 70.8 21.3179C71.6332 21.6795 72.531 21.8687 73.4392 21.874C74.3474 21.8793 75.2472 21.7007 76.0846 21.3489C76.9219 20.9971 77.6794 20.4794 78.3113 19.827C79.0391 19.1146 79.6079 18.2562 79.9802 17.3083C80.3525 16.3603 80.5198 15.3443 80.4713 14.327C80.5181 13.3029 80.3481 12.2805 79.9724 11.3267C79.5967 10.3729 79.0239 9.50914 78.2914 8.792C77.658 8.13944 76.9014 7.61912 76.0654 7.26121C75.2294 6.9033 74.3306 6.71492 73.4212 6.707C72.5135 6.71528 71.6168 6.90538 70.7838 7.26606C69.9508 7.62675 69.1984 8.15071 68.5713 8.807C67.8499 9.52104 67.2853 10.3776 66.9134 11.3219C66.5415 12.2663 66.3706 13.2778 66.4114 14.292ZM96.3613 22.518H106.671C107.291 22.481 107.912 22.5779 108.491 22.802C108.673 22.8895 108.834 23.0139 108.965 23.1673C109.096 23.3207 109.194 23.4998 109.251 23.693C109.505 24.7521 109.505 25.8559 109.251 26.915C109.207 27.0918 109.127 27.2574 109.015 27.4011C108.903 27.5447 108.762 27.6633 108.601 27.749C107.984 28.0308 107.309 28.1608 106.631 28.128H92.9813C91.2213 28.128 90.1813 27.648 89.8813 26.688C89.6947 26.0612 89.6169 25.4071 89.6514 24.754V3.678C89.644 3.24118 89.664 2.80432 89.7113 2.37C89.7644 2.01624 89.8867 1.67642 90.0713 1.37C90.4213 0.687999 91.4113 0.347 93.0213 0.347C94.7913 0.347 95.8412 0.813668 96.1712 1.747C96.3228 2.39249 96.3868 3.05545 96.3613 3.718V22.518ZM118.611 22.518H128.921C129.541 22.481 130.162 22.5779 130.741 22.802C130.923 22.8895 131.084 23.0139 131.215 23.1673C131.346 23.3207 131.444 23.4998 131.501 23.693C131.755 24.7521 131.755 25.8559 131.501 26.915C131.457 27.0918 131.377 27.2574 131.265 27.4011C131.153 27.5447 131.012 27.6633 130.851 27.749C130.234 28.0308 129.559 28.1608 128.881 28.128H115.241C113.471 28.128 112.431 27.648 112.131 26.688C111.95 26.0602 111.872 25.4069 111.901 24.754V3.678C111.894 3.24118 111.914 2.80432 111.961 2.37C112.014 2.01624 112.137 1.67642 112.321 1.37C112.671 0.687999 113.661 0.347 115.271 0.347C117.041 0.347 118.091 0.813668 118.421 1.747C118.573 2.39249 118.637 3.05545 118.611 3.718V22.518ZM144.071 0C145.911 0.0126682 147.73 0.388324 149.424 1.10543C151.118 1.82253 152.653 2.86697 153.943 4.17886C155.232 5.49076 156.25 7.04429 156.938 8.75038C157.626 10.4565 157.97 12.2816 157.951 14.121C158.029 17.9169 156.614 21.5917 154.011 24.356C152.79 25.7145 151.291 26.7949 149.615 27.5241C147.94 28.2534 146.128 28.6145 144.301 28.583C142.467 28.611 140.647 28.2544 138.96 27.5362C137.272 26.818 135.753 25.754 134.501 24.413C133.199 23.111 132.171 21.5614 131.477 19.8556C130.783 18.1498 130.438 16.3224 130.461 14.481C130.446 12.4598 130.834 10.4559 131.601 8.586C132.29 6.86189 133.321 5.29508 134.631 3.98C135.893 2.74679 137.371 1.75719 138.991 1.061C140.594 0.363537 142.323 0.00174784 144.071 0ZM137.171 14.291C137.133 15.3056 137.307 16.3171 137.682 17.2605C138.058 18.2039 138.626 19.0583 139.351 19.769C139.977 20.4288 140.729 20.9553 141.563 21.3168C142.397 21.6784 143.295 21.8675 144.204 21.8729C145.113 21.8782 146.014 21.6996 146.852 21.3478C147.69 20.9961 148.448 20.4784 149.081 19.826C149.809 19.1136 150.378 18.2552 150.75 17.3073C151.123 16.3593 151.29 15.3433 151.241 14.326C151.286 13.3024 151.115 12.2808 150.739 11.3275C150.363 10.3742 149.792 9.51038 149.061 8.792C148.427 8.14077 147.67 7.62132 146.834 7.26351C145.999 6.90569 145.1 6.71657 144.191 6.707C143.283 6.71432 142.386 6.90398 141.553 7.26472C140.72 7.62547 139.968 8.14994 139.341 8.807C138.617 9.51906 138.049 10.375 137.675 11.3197C137.302 12.2644 137.13 13.2759 137.171 14.291Z" fill="#E2ECEB"/>
</svg>
