<svg width="26" height="26" viewBox="0 0 26 26" fill="none" xmlns="http://www.w3.org/2000/svg">
<path fill-rule="evenodd" clip-rule="evenodd" d="M12.9999 24.9167C6.41852 24.9167 1.08325 19.5814 1.08325 13C1.08325 6.41861 6.41852 1.08334 12.9999 1.08334C19.5813 1.08334 24.9166 6.41861 24.9166 13C24.9166 19.5814 19.5813 24.9167 12.9999 24.9167ZM12.9999 22.75C18.3847 22.75 22.7499 18.3848 22.7499 13C22.7499 7.61523 18.3847 3.25 12.9999 3.25C7.61514 3.25 3.24992 7.61523 3.24992 13C3.24992 18.3848 7.61514 22.75 12.9999 22.75ZM9.43261 18.0994L12.9999 14.5321L16.5672 18.0994L18.0993 16.5673L14.532 13L18.0993 9.4327L16.5672 7.90064L12.9999 11.4679L9.43261 7.90064L7.90055 9.4327L11.4678 13L7.90055 16.5673L9.43261 18.0994Z" fill="#D6A218"/>
</svg>
