<svg width="16" height="16" viewBox="0 0 16 16" fill="none" xmlns="http://www.w3.org/2000/svg">
<path fill-rule="evenodd" clip-rule="evenodd" d="M5.33341 4H3.40948C4.69652 2.52758 6.10622 2 8.00008 2C11.3138 2 14.0001 4.68629 14.0001 8C14.0001 11.3137 11.3138 14 8.00008 14C4.68637 14 2.00008 11.3137 2.00008 8H0.666748C0.666748 12.0501 3.94999 15.3333 8.00008 15.3333C12.0502 15.3333 15.3334 12.0501 15.3334 8C15.3334 3.94991 12.0502 0.666667 8.00008 0.666667C5.85783 0.666667 4.15813 1.27371 2.66675 2.83763V1.32747H1.33341V5.33333H5.33341V4ZM11.3334 7.33333H8.66675V4H7.33342V8.66667H11.3334V7.33333Z" fill="#4F4F4F"/>
</svg>
