<svg width="120" height="24" viewBox="0 0 120 24" fill="none" xmlns="http://www.w3.org/2000/svg">
<rect x="0.5" y="0.5" width="119" height="23" rx="11.5" stroke="#425C59"/>
<path d="M25.1621 7.04688V13.8145C25.1576 14.7533 24.8613 15.5212 24.2734 16.1182C23.6901 16.7152 22.8971 17.0501 21.8945 17.123L21.5459 17.1367C20.4567 17.1367 19.5885 16.8428 18.9414 16.2549C18.2943 15.667 17.9661 14.8581 17.957 13.8281V7.04688H19.2559V13.7871C19.2559 14.5072 19.4541 15.0677 19.8506 15.4688C20.2471 15.8652 20.8122 16.0635 21.5459 16.0635C22.2887 16.0635 22.8561 15.8652 23.248 15.4688C23.6445 15.0723 23.8428 14.514 23.8428 13.7939V7.04688H25.1621ZM28.2314 9.60352L28.2725 10.5332C28.8376 9.82227 29.5758 9.4668 30.4873 9.4668C32.0505 9.4668 32.8389 10.3486 32.8525 12.1123V17H31.5879V12.1055C31.5833 11.5723 31.4603 11.1781 31.2188 10.9229C30.9818 10.6676 30.6104 10.54 30.1045 10.54C29.6943 10.54 29.3343 10.6494 29.0244 10.8682C28.7145 11.0869 28.473 11.374 28.2998 11.7295V17H27.0352V9.60352H28.2314ZM38.335 10.7383C38.1436 10.7064 37.9362 10.6904 37.7129 10.6904C36.8835 10.6904 36.3206 11.0436 36.0244 11.75V17H34.7598V9.60352H35.9902L36.0107 10.458C36.4255 9.7972 37.0133 9.4668 37.7744 9.4668C38.0205 9.4668 38.2074 9.4987 38.335 9.5625V10.7383ZM42.4365 17.1367C41.4339 17.1367 40.6182 16.8086 39.9893 16.1523C39.3604 15.4915 39.0459 14.6097 39.0459 13.5068V13.2744C39.0459 12.5407 39.1849 11.8867 39.4629 11.3125C39.7454 10.7337 40.1374 10.2826 40.6387 9.95898C41.1445 9.63086 41.6914 9.4668 42.2793 9.4668C43.2409 9.4668 43.9883 9.78353 44.5215 10.417C45.0547 11.0505 45.3213 11.9574 45.3213 13.1377V13.6641H40.3105C40.3288 14.3932 40.5407 14.9834 40.9463 15.4346C41.3564 15.8812 41.876 16.1045 42.5049 16.1045C42.9515 16.1045 43.3298 16.0133 43.6396 15.8311C43.9495 15.6488 44.2207 15.4072 44.4531 15.1064L45.2256 15.708C44.6058 16.6605 43.6761 17.1367 42.4365 17.1367ZM42.2793 10.5059C41.7689 10.5059 41.3405 10.6927 40.9941 11.0664C40.6478 11.4355 40.4336 11.9551 40.3516 12.625H44.0566V12.5293C44.0202 11.8867 43.847 11.39 43.5371 11.0391C43.2272 10.6836 42.8079 10.5059 42.2793 10.5059ZM49.7578 16.1045C50.209 16.1045 50.6032 15.9678 50.9404 15.6943C51.2777 15.4209 51.4645 15.0791 51.501 14.6689H52.6973C52.6745 15.0928 52.5286 15.4961 52.2598 15.8789C51.9909 16.2617 51.6309 16.5671 51.1797 16.7949C50.7331 17.0228 50.2591 17.1367 49.7578 17.1367C48.7507 17.1367 47.9486 16.8018 47.3516 16.1318C46.7591 15.4574 46.4629 14.5368 46.4629 13.3701V13.1582C46.4629 12.4382 46.5951 11.7979 46.8594 11.2373C47.1237 10.6768 47.502 10.2415 47.9941 9.93164C48.4909 9.62174 49.0765 9.4668 49.751 9.4668C50.5804 9.4668 51.2686 9.71517 51.8154 10.2119C52.3669 10.7087 52.6608 11.3535 52.6973 12.1465H51.501C51.4645 11.668 51.2822 11.276 50.9541 10.9707C50.6305 10.6608 50.2295 10.5059 49.751 10.5059C49.1084 10.5059 48.6094 10.7383 48.2539 11.2031C47.903 11.6634 47.7275 12.3311 47.7275 13.2061V13.4453C47.7275 14.2975 47.903 14.9538 48.2539 15.4141C48.6048 15.8743 49.1061 16.1045 49.7578 16.1045ZM53.7842 13.2334C53.7842 12.5088 53.9255 11.8571 54.208 11.2783C54.4951 10.6995 54.8916 10.2529 55.3975 9.93848C55.9079 9.62402 56.4889 9.4668 57.1406 9.4668C58.1478 9.4668 58.9613 9.81543 59.5811 10.5127C60.2054 11.21 60.5176 12.1374 60.5176 13.2949V13.3838C60.5176 14.1038 60.3786 14.751 60.1006 15.3252C59.8271 15.8949 59.4329 16.3392 58.918 16.6582C58.4076 16.9772 57.8197 17.1367 57.1543 17.1367C56.1517 17.1367 55.3382 16.7881 54.7139 16.0908C54.0941 15.3936 53.7842 14.4707 53.7842 13.3223V13.2334ZM55.0557 13.3838C55.0557 14.2041 55.2448 14.8626 55.623 15.3594C56.0059 15.8561 56.5163 16.1045 57.1543 16.1045C57.7969 16.1045 58.3073 15.8538 58.6855 15.3525C59.0638 14.8467 59.2529 14.1403 59.2529 13.2334C59.2529 12.4222 59.0592 11.766 58.6719 11.2646C58.2891 10.7588 57.7786 10.5059 57.1406 10.5059C56.5163 10.5059 56.0127 10.7542 55.6299 11.251C55.2471 11.7477 55.0557 12.4587 55.0557 13.3838ZM61.8027 13.2402C61.8027 12.0872 62.0693 11.1712 62.6025 10.4922C63.1357 9.80859 63.8421 9.4668 64.7217 9.4668C65.624 9.4668 66.3281 9.78581 66.834 10.4238L66.8955 9.60352H68.0508V16.8223C68.0508 17.7793 67.766 18.5335 67.1963 19.085C66.6312 19.6364 65.8701 19.9121 64.9131 19.9121C64.3799 19.9121 63.8581 19.7982 63.3477 19.5703C62.8372 19.3424 62.4476 19.0303 62.1787 18.6338L62.835 17.875C63.3773 18.5449 64.0404 18.8799 64.8242 18.8799C65.4395 18.8799 65.918 18.7067 66.2598 18.3604C66.6061 18.014 66.7793 17.5264 66.7793 16.8975V16.2617C66.2734 16.8451 65.583 17.1367 64.708 17.1367C63.8421 17.1367 63.1403 16.7881 62.6025 16.0908C62.0693 15.3936 61.8027 14.4434 61.8027 13.2402ZM63.0742 13.3838C63.0742 14.2178 63.2451 14.874 63.5869 15.3525C63.9287 15.8265 64.4072 16.0635 65.0225 16.0635C65.82 16.0635 66.4056 15.7012 66.7793 14.9766V11.5996C66.3919 10.8932 65.8109 10.54 65.0361 10.54C64.4209 10.54 63.9401 10.7793 63.5938 11.2578C63.2474 11.7363 63.0742 12.445 63.0742 13.3838ZM71.1611 9.60352L71.2021 10.5332C71.7673 9.82227 72.5055 9.4668 73.417 9.4668C74.9801 9.4668 75.7686 10.3486 75.7822 12.1123V17H74.5176V12.1055C74.513 11.5723 74.39 11.1781 74.1484 10.9229C73.9115 10.6676 73.54 10.54 73.0342 10.54C72.624 10.54 72.264 10.6494 71.9541 10.8682C71.6442 11.0869 71.4027 11.374 71.2295 11.7295V17H69.9648V9.60352H71.1611ZM79.0635 17H77.7988V9.60352H79.0635V17ZM77.6963 7.6416C77.6963 7.43652 77.7578 7.26335 77.8809 7.12207C78.0085 6.98079 78.1953 6.91016 78.4414 6.91016C78.6875 6.91016 78.8743 6.98079 79.002 7.12207C79.1296 7.26335 79.1934 7.43652 79.1934 7.6416C79.1934 7.84668 79.1296 8.01758 79.002 8.1543C78.8743 8.29102 78.6875 8.35938 78.4414 8.35938C78.1953 8.35938 78.0085 8.29102 77.8809 8.1543C77.7578 8.01758 77.6963 7.84668 77.6963 7.6416ZM82.2832 15.9678H86.6104V17H80.7383V16.0703L84.8193 10.6494H80.7998V9.60352H86.4053V10.499L82.2832 15.9678ZM90.999 17.1367C89.9964 17.1367 89.1807 16.8086 88.5518 16.1523C87.9229 15.4915 87.6084 14.6097 87.6084 13.5068V13.2744C87.6084 12.5407 87.7474 11.8867 88.0254 11.3125C88.3079 10.7337 88.6999 10.2826 89.2012 9.95898C89.707 9.63086 90.2539 9.4668 90.8418 9.4668C91.8034 9.4668 92.5508 9.78353 93.084 10.417C93.6172 11.0505 93.8838 11.9574 93.8838 13.1377V13.6641H88.873C88.8913 14.3932 89.1032 14.9834 89.5088 15.4346C89.9189 15.8812 90.4385 16.1045 91.0674 16.1045C91.514 16.1045 91.8923 16.0133 92.2021 15.8311C92.512 15.6488 92.7832 15.4072 93.0156 15.1064L93.7881 15.708C93.1683 16.6605 92.2386 17.1367 90.999 17.1367ZM90.8418 10.5059C90.3314 10.5059 89.903 10.6927 89.5566 11.0664C89.2103 11.4355 88.9961 11.9551 88.9141 12.625H92.6191V12.5293C92.5827 11.8867 92.4095 11.39 92.0996 11.0391C91.7897 10.6836 91.3704 10.5059 90.8418 10.5059ZM95.0459 13.2402C95.0459 12.1055 95.3148 11.194 95.8525 10.5059C96.3903 9.81315 97.0944 9.4668 97.9648 9.4668C98.8307 9.4668 99.5166 9.76302 100.022 10.3555V6.5H101.287V17H100.125L100.063 16.207C99.5576 16.8268 98.8535 17.1367 97.9512 17.1367C97.0944 17.1367 96.3949 16.7858 95.8525 16.084C95.3148 15.3822 95.0459 14.4661 95.0459 13.3359V13.2402ZM96.3105 13.3838C96.3105 14.2223 96.4837 14.8786 96.8301 15.3525C97.1764 15.8265 97.6549 16.0635 98.2656 16.0635C99.0677 16.0635 99.6533 15.7035 100.022 14.9834V11.5859C99.6442 10.8887 99.0632 10.54 98.2793 10.54C97.6595 10.54 97.1764 10.7793 96.8301 11.2578C96.4837 11.7363 96.3105 12.445 96.3105 13.3838Z" fill="#425C59"/>
</svg>
