<svg width="26" height="26" viewBox="0 0 26 26" fill="none" xmlns="http://www.w3.org/2000/svg">
<path fill-rule="evenodd" clip-rule="evenodd" d="M10.8334 2.16667H21.6667C22.9151 2.16667 23.8334 3.08503 23.8334 4.33334V15.1667C23.8334 16.415 22.9151 17.3333 21.6667 17.3333H17.3334V21.6667C17.3334 22.915 16.4151 23.8333 15.1667 23.8333H4.33341C3.08511 23.8333 2.16675 22.915 2.16675 21.6667V10.8333C2.16675 9.58503 3.08511 8.66667 4.33341 8.66667H8.66675V4.33334C8.66675 3.08503 9.58511 2.16667 10.8334 2.16667ZM8.66675 10.8333H4.33341V21.6667H15.1667V17.3333H10.8334C9.58511 17.3333 8.66675 16.415 8.66675 15.1667V10.8333ZM10.8334 4.33334V15.1667H21.6667V4.33334H10.8334Z" fill="#D6A218"/>
</svg>
