<svg width="12" height="12" viewBox="0 0 12 12" fill="none" xmlns="http://www.w3.org/2000/svg">
<path fill-rule="evenodd" clip-rule="evenodd" d="M2.5 7C1.94772 7 1.5 6.55229 1.5 6C1.5 5.44772 1.94772 5 2.5 5C3.05228 5 3.5 5.44772 3.5 6C3.5 6.55229 3.05228 7 2.5 7ZM5.99998 7C5.4477 7 4.99998 6.55229 4.99998 6C4.99998 5.44772 5.4477 5 5.99998 5C6.55227 5 6.99998 5.44772 6.99998 6C6.99998 6.55229 6.55227 7 5.99998 7ZM8.50002 6C8.50002 6.55229 8.94773 7 9.50002 7C10.0523 7 10.5 6.55229 10.5 6C10.5 5.44772 10.0523 5 9.50002 5C8.94773 5 8.50002 5.44772 8.50002 6Z" fill="#4F4F4F"/>
</svg>
