<svg width="16" height="16" viewBox="0 0 16 16" fill="none" xmlns="http://www.w3.org/2000/svg">
<path fill-rule="evenodd" clip-rule="evenodd" d="M5.33324 3.99999H3.99991V3.33332H2.6666V5.33332H13.3333V3.33332H11.9999V3.99999H10.6666V3.33332H5.33324V3.99999ZM13.3333 6.66666H2.6666V13.3333H13.3333V6.66666ZM10.6666 1.99999H5.33324V1.33332H3.99991V1.99999H2.66659C1.93021 1.99999 1.33325 2.59695 1.33325 3.33333V13.3333C1.33325 14.0697 1.93021 14.6667 2.66659 14.6667H13.3333C14.0696 14.6667 14.6666 14.0697 14.6666 13.3333V3.33333C14.6666 2.59695 14.0696 1.99999 13.3333 1.99999H11.9999V1.33332H10.6666V1.99999ZM5.99993 9.33332H4.6666V7.99999H5.99993V9.33332ZM7.33325 9.33332H8.66659V7.99999H7.33325V9.33332ZM11.3332 9.33332H9.99991V7.99999H11.3332V9.33332ZM4.6666 12H5.99993V10.6667H4.6666V12ZM8.66659 12H7.33325V10.6667H8.66659V12Z" fill="#4F4F4F"/>
</svg>
