<svg width="26" height="26" viewBox="0 0 26 26" fill="none" xmlns="http://www.w3.org/2000/svg">
<path fill-rule="evenodd" clip-rule="evenodd" d="M14.0834 11.9167C12.0643 11.9167 10.3676 10.5357 9.8866 8.66667H2.16675V6.5H9.8866C10.3676 4.631 12.0643 3.25 14.0834 3.25C16.4766 3.25 18.4167 5.1901 18.4167 7.58333C18.4167 9.97657 16.4766 11.9167 14.0834 11.9167ZM20.5834 6.5H23.8334V8.66667H20.5834V6.5ZM8.66675 22.75C6.64759 22.75 4.95098 21.369 4.46993 19.5H2.16675V17.3333H4.46993C4.95098 15.4643 6.64759 14.0833 8.66675 14.0833C11.06 14.0833 13.0001 16.0234 13.0001 18.4167C13.0001 20.8099 11.06 22.75 8.66675 22.75ZM15.1667 19.5H23.8334V17.3333H15.1667V19.5ZM10.8334 18.4167C10.8334 19.6133 9.86337 20.5833 8.66675 20.5833C7.47013 20.5833 6.50008 19.6133 6.50008 18.4167C6.50008 17.22 7.47013 16.25 8.66675 16.25C9.86337 16.25 10.8334 17.22 10.8334 18.4167ZM16.2501 7.58333C16.2501 8.77995 15.28 9.75 14.0834 9.75C12.8868 9.75 11.9167 8.77995 11.9167 7.58333C11.9167 6.38672 12.8868 5.41667 14.0834 5.41667C15.28 5.41667 16.2501 6.38672 16.2501 7.58333Z" fill="#D6A218"/>
</svg>
